<?xml version="1.0" standalone="no"?>
<!DOCTYPE svg PUBLIC "-//W3C//DTD SVG 20010904//EN"
 "http://www.w3.org/TR/2001/REC-SVG-20010904/DTD/svg10.dtd">
<svg version="1.0" xmlns="http://www.w3.org/2000/svg"
 width="849.000000pt" height="849.000000pt" viewBox="0 0 849.000000 849.000000"
 preserveAspectRatio="xMidYMid meet">
<metadata>
Created by potrace 1.14, written by Peter Selinger 2001-2017
</metadata>
<g transform="translate(0.000000,849.000000) scale(0.100000,-0.100000)"
fill="#000000" stroke="none">
<path d="M4278 8470 c-9 -10 -18 -28 -20 -40 -2 -11 -7 -21 -13 -21 -9 0 -30
-33 -54 -87 -6 -13 -18 -30 -26 -38 -8 -9 -15 -24 -15 -35 0 -11 -7 -22 -15
-25 -8 -4 -15 -14 -15 -24 0 -10 -7 -23 -15 -30 -8 -7 -15 -19 -15 -26 0 -8
-9 -22 -20 -31 -11 -10 -20 -25 -20 -35 0 -9 -5 -20 -10 -23 -6 -4 -17 -21
-25 -38 -8 -18 -20 -41 -26 -52 -22 -37 -29 -50 -39 -72 -5 -13 -14 -23 -20
-23 -5 0 -10 -8 -10 -18 0 -11 -9 -29 -20 -42 -11 -12 -22 -31 -25 -41 -4 -11
-11 -19 -16 -19 -5 0 -9 -6 -9 -13 0 -7 -16 -36 -35 -66 -19 -29 -35 -59 -35
-66 0 -8 -6 -20 -13 -27 -7 -7 -18 -24 -25 -38 -32 -62 -44 -80 -52 -80 -5 0
-11 -13 -15 -30 -4 -16 -10 -30 -14 -30 -3 0 -12 -12 -19 -27 -6 -16 -21 -41
-32 -58 -11 -16 -24 -40 -29 -52 -6 -12 -23 -41 -38 -65 -15 -24 -34 -54 -41
-68 -7 -14 -28 -52 -47 -85 -19 -33 -40 -71 -47 -85 -7 -14 -18 -29 -25 -33
-7 -4 -13 -14 -13 -21 0 -8 -6 -19 -14 -26 -8 -6 -16 -24 -18 -38 -2 -15 -9
-26 -15 -24 -7 1 -13 -7 -13 -18 0 -11 -9 -29 -20 -40 -11 -11 -20 -26 -20
-34 0 -8 -7 -21 -15 -30 -8 -8 -20 -25 -25 -38 -23 -49 -41 -78 -51 -78 -5 0
-9 -7 -9 -16 0 -9 -9 -32 -21 -50 -11 -19 -18 -38 -15 -43 4 -6 116 -10 269
-10 144 0 265 -1 270 -1 4 0 6 -666 5 -1480 -2 -1173 -6 -1482 -16 -1488 -6
-5 -15 -28 -18 -52 -4 -24 -13 -50 -20 -58 -8 -7 -14 -23 -14 -34 0 -11 -9
-31 -20 -45 -11 -14 -20 -31 -20 -39 0 -7 -3 -14 -7 -16 -5 -1 -21 -23 -38
-48 -62 -93 -201 -230 -233 -230 -6 0 -15 -6 -19 -14 -20 -34 -227 -118 -358
-144 -42 -9 -271 -7 -320 2 -110 21 -243 78 -350 149 -77 51 -198 173 -242
243 -66 105 -104 196 -132 315 -18 80 -19 132 -20 1099 0 558 0 1230 -1 1493
l0 477 -565 0 -565 0 1 -1442 c0 -794 5 -1468 9 -1498 5 -30 14 -80 19 -110 6
-30 14 -75 17 -100 15 -119 82 -352 139 -485 29 -68 115 -239 129 -255 7 -8
24 -34 36 -58 13 -23 27 -42 32 -42 4 0 8 -6 8 -14 0 -8 3 -16 8 -18 4 -1 18
-19 32 -39 63 -91 221 -259 335 -357 142 -121 415 -278 595 -342 19 -6 44 -16
55 -21 76 -32 248 -71 415 -94 93 -13 422 -13 500 -1 242 40 424 92 595 171
l30 14 3 -950 2 -949 600 0 600 0 -2 950 c-2 523 -2 950 -1 950 1 0 37 -16 80
-36 120 -54 314 -120 413 -139 168 -32 241 -39 415 -40 105 0 217 4 250 8 53
7 202 34 230 41 6 2 24 6 40 10 202 50 440 157 622 279 62 42 119 81 127 89 8
7 31 27 52 43 21 17 88 80 149 142 119 121 135 139 135 149 0 4 11 17 25 30
14 13 25 25 25 27 0 3 29 49 64 102 88 134 187 335 236 483 23 68 43 131 45
140 19 83 46 234 52 289 10 89 10 392 0 468 -52 392 -186 727 -411 1025 -68
91 -230 262 -307 325 -30 25 -179 136 -205 153 -205 136 -499 254 -739 297
-148 26 -225 33 -380 33 -290 -1 -580 -64 -843 -185 -41 -18 -75 -33 -78 -33
-2 0 -4 191 -4 425 0 333 3 425 13 426 6 0 21 3 32 5 11 3 134 4 273 4 139 -1
257 2 262 5 9 6 -27 87 -42 93 -4 2 -8 12 -8 21 0 10 -9 28 -20 41 -11 13 -20
30 -20 39 0 9 -9 22 -20 29 -11 7 -20 17 -20 23 0 6 -20 44 -45 85 -26 42 -50
85 -56 97 -5 12 -18 36 -29 52 -11 17 -25 42 -31 58 -6 15 -15 27 -19 27 -4 0
-13 14 -19 30 -5 17 -15 30 -20 30 -6 0 -11 13 -11 29 0 16 -6 31 -12 34 -7 3
-24 27 -38 53 -14 27 -30 52 -36 56 -6 4 -19 27 -29 52 -10 25 -22 43 -27 40
-4 -3 -5 2 -2 10 3 9 2 16 -4 16 -6 0 -15 12 -21 28 -13 31 -43 85 -52 92 -7
6 -30 48 -52 96 -8 17 -20 35 -26 38 -6 4 -11 15 -11 26 0 10 -7 20 -15 24 -8
3 -15 14 -15 23 0 10 -9 26 -20 36 -11 9 -20 26 -20 38 0 16 -5 20 -18 17 -15
-4 -18 -1 -14 17 3 20 -27 78 -50 95 -3 3 -10 18 -13 33 -4 15 -11 27 -15 27
-5 0 -12 10 -16 22 -3 12 -22 43 -40 70 -19 26 -34 54 -34 62 0 7 -7 19 -15
26 -9 7 -27 37 -40 66 -13 29 -29 55 -34 59 -6 3 -11 15 -11 26 0 11 -6 22
-14 25 -8 3 -19 19 -25 35 -5 16 -15 29 -20 29 -6 0 -11 11 -11 25 0 14 -7 28
-15 31 -8 4 -15 12 -15 19 0 23 -16 25 -32 5z m1742 -3785 c54 -10 199 -56
205 -65 3 -4 17 -11 31 -14 27 -7 140 -75 184 -111 240 -196 364 -462 355
-759 -5 -143 -7 -159 -35 -251 -76 -247 -252 -455 -486 -574 -138 -70 -249
-95 -424 -95 -221 -1 -376 46 -553 166 -78 53 -237 212 -237 237 0 5 -6 14
-14 20 -18 15 -89 160 -110 226 -35 110 -45 188 -41 325 2 100 9 155 25 210
44 153 153 333 266 441 130 123 351 229 514 246 25 3 47 7 50 10 6 6 223 -3
270 -12z"/>
</g>
</svg>
